<?xml version="1.0" encoding="UTF-8" standalone="no"?>
<!-- Created with Inkscape (http://www.inkscape.org/) -->

<svg
   version="1.1"
   id="svg1"
   width="1024"
   height="1024"
   viewBox="0 0 1024 1024"
   sodipodi:docname="essentialist-icon.svg"
   inkscape:version="1.4.2 (ebf0e940d0, 2025-05-08)"
   inkscape:export-filename="essentialist-icon-256.png"
   inkscape:export-xdpi="24"
   inkscape:export-ydpi="24"
   xml:space="preserve"
   xmlns:inkscape="http://www.inkscape.org/namespaces/inkscape"
   xmlns:sodipodi="http://sodipodi.sourceforge.net/DTD/sodipodi-0.dtd"
   xmlns:xlink="http://www.w3.org/1999/xlink"
   xmlns="http://www.w3.org/2000/svg"
   xmlns:svg="http://www.w3.org/2000/svg"
   xmlns:rdf="http://www.w3.org/1999/02/22-rdf-syntax-ns#"
   xmlns:cc="http://creativecommons.org/ns#"
   xmlns:dc="http://purl.org/dc/elements/1.1/"><title
     id="title8">https://essentialist.app</title><defs
     id="defs1" /><sodipodi:namedview
     id="namedview1"
     pagecolor="#000000"
     bordercolor="#666666"
     borderopacity="1.0"
     inkscape:showpageshadow="2"
     inkscape:pageopacity="0.0"
     inkscape:pagecheckerboard="true"
     inkscape:deskcolor="#d1d1d1"
     inkscape:zoom="0.70710678"
     inkscape:cx="448.3057"
     inkscape:cy="460.32651"
     inkscape:window-width="1918"
     inkscape:window-height="1062"
     inkscape:window-x="0"
     inkscape:window-y="16"
     inkscape:window-maximized="1"
     inkscape:current-layer="svg1" /><metadata
     id="metadata8"><rdf:RDF><cc:Work
         rdf:about=""><cc:license
           rdf:resource="http://creativecommons.org/licenses/by-nc-nd/4.0/" /><dc:description>Essentialist Icon</dc:description><dc:title>https://essentialist.app</dc:title></cc:Work><cc:License
         rdf:about="http://creativecommons.org/licenses/by-nc-nd/4.0/"><cc:permits
           rdf:resource="http://creativecommons.org/ns#Reproduction" /><cc:permits
           rdf:resource="http://creativecommons.org/ns#Distribution" /><cc:requires
           rdf:resource="http://creativecommons.org/ns#Notice" /><cc:requires
           rdf:resource="http://creativecommons.org/ns#Attribution" /><cc:prohibits
           rdf:resource="http://creativecommons.org/ns#CommercialUse" /></cc:License></rdf:RDF></metadata><use
     x="0"
     y="0"
     xlink:href="#use23"
     id="use24"
     transform="rotate(30,563.13965,546.40483)" /><g
     id="g23"
     transform="matrix(0.8390804,0,0,0.67968749,336.22971,187.76968)"
     inkscape:label="original"><rect
       style="fill:#ffffff;fill-opacity:1;fill-rule:evenodd;stroke:#6c6c6c;stroke-width:0;stroke-linecap:round;stroke-miterlimit:8.5"
       id="rect23"
       width="837.48962"
       height="1232.1692"
       x="-228.62514"
       y="-127.54877"
       ry="90"
       rx="70.201729" /><path
       style="display:inline;fill:#000000"
       d="m -151.02959,1075.9329 c -22.57243,-6.0705 -40.83683,-24.1622 -49.0226,-48.5592 -2.37286,-7.0722 -2.47362,-26.2122 -2.82885,-537.33336 -0.40744,-586.242265 -1.08159,-539.335203 8.01288,-557.534853 5.21154,-10.429206 17.72772,-23.074038 28.46428,-28.756853 17.05508,-9.027184 -10.81855,-8.374924 357.89116,-8.374924 366.0228,0 340.69411,-0.5465 357.28332,7.708884 9.40173,4.678633 22.16115,16.659494 27.90945,26.206447 2.48936,4.134418 5.61982,11.461371 6.95658,16.282118 2.33004,8.402862 2.44602,30.725033 2.80721,540.283741 l 0.37675,531.5188 -2.94408,9.3333 c -7.80333,24.7381 -26.39207,43.1402 -49.8972,49.3963 -10.8369,2.8844 -674.26383,2.7193 -685.0089,-0.1704 z M 45.876484,984.76369 c 34.020856,-5.85761 52.918263,-13.72936 67.029566,-27.92128 9.4,-9.4537 13.86156,-17.18537 15.75009,-27.29418 1.33118,-7.12545 0.85782,-7.82035 -12.14557,-17.82981 -5.49962,-4.23338 -7.12947,-4.81372 -12.69016,-4.51858 -5.307473,0.2817 -6.898913,-0.21361 -9.465913,-2.94606 -1.7391,-1.85118 -3.40823,-5.68852 -3.82459,-8.79278 -0.66482,-4.95655 -1.75534,-6.30823 -10.890707,-13.49878 -11.850081,-9.32733 -13.892197,-9.46763 -25.163302,-1.72885 -21.208064,14.56154 -30.946527,45.10214 -28.742972,90.14028 0.701339,14.33456 1.165396,16.99861 2.959724,16.99116 1.170386,-0.005 8.903111,-1.17537 17.183834,-2.60112 z m -4.605911,-33.05671 c 1.408464,-27.78131 6.664469,-43.17524 18.754962,-54.93002 l 6.099386,-5.93003 4.341189,3.93003 c 2.387654,2.16151 4.58494,4.07078 4.882859,4.24281 0.297918,0.17204 -2.268105,3.31667 -5.702273,6.98807 -6.94351,7.42317 -10.535994,14.69798 -12.58556,25.48586 -2.054454,10.8136 -2.913866,21.21328 -1.753029,21.21328 2.900006,0 16.432608,-4.76418 23.121461,-8.13997 9.644559,-4.86749 16.235179,-10.64829 20.566819,-18.03966 l 3.407173,-5.81389 5.18006,3.66343 c 2.84904,2.01488 5.19288,4.31056 5.20853,5.1015 0.0612,3.09298 -8.75436,14.45396 -15.192153,19.57867 -3.72866,2.96814 -10.54491,7.11663 -15.147226,9.21887 -8.442603,3.85638 -32.907901,10.42613 -38.838108,10.42933 l -3.20596,0.002 z m 169.674267,23.82788 c 19.47389,-13.75666 42.11446,-36.30746 54.1426,-53.9279 12.10347,-17.73083 15.73317,-32.2291 15.73317,-62.84376 0,-11.39758 -0.34616,-20.72288 -0.76924,-20.72288 -0.42308,0 -7.17308,5.98166 -15,13.29258 -19.14562,17.88343 -42.57677,36.45714 -63.56409,50.38683 -9.53333,6.32745 -17.79795,11.88271 -18.36581,12.34501 -0.56787,0.4623 1.33854,7.99593 4.23647,16.7414 4.88417,14.7396 12.12934,44.04526 12.12934,49.06138 0,3.28705 1.44421,2.74093 11.45756,-4.33266 z m -57.97417,-63.64234 6.24165,-6.14779 -9.52918,-8.07716 c -5.24105,-4.44244 -10.45913,-8.86028 -11.59573,-9.81741 -1.75605,-1.47878 -3.05821,-0.92079 -8.66667,3.71377 -3.63006,2.99971 -6.60012,5.96243 -6.60012,6.58382 0,1.22594 21.62293,19.89257 23.04303,19.89257 0.47596,0 3.67411,-2.76651 7.10702,-6.1478 z m 35.18328,-17.62806 c 43.39389,-27.59282 92.62378,-73.12569 121.87714,-112.7245 13.77048,-18.64041 32.77513,-52.97966 41.55989,-75.09403 3.54628,-8.92725 3.79556,-10.35597 1.98377,-11.36989 -9.52559,-5.33079 -40.55643,-27.08433 -54.08747,-37.91693 -17.4537,-13.97296 -41.25631,-35.46095 -49.51743,-44.70222 l -4.85076,-5.42629 -13.35892,8.89339 c -53.71006,35.75624 -98.9024,90.628 -131.32261,159.44967 -6.711843,14.24791 -17.219863,40.50167 -18.738059,46.81609 -0.85215,3.54423 0.297193,4.59008 27.879709,25.36933 0.89451,0.67389 4.52154,-3.39434 9.74009,-10.9249 13.64074,-19.6841 33.62533,-43.8372 46.44227,-56.12949 21.1303,-20.26536 32.74299,-24.40302 42.74529,-15.23039 4.76414,4.36896 4.97777,4.9335 4.91937,13 -0.0508,7.01256 -0.89275,10.07287 -4.99965,18.17201 -9.06516,17.87722 -24.58647,38.64658 -48.64008,65.08621 l -13.48762,14.82554 14.8468,12.7637 c 8.16574,7.02004 15.48313,12.38431 16.26087,11.9206 0.77774,-0.46372 5.61407,-3.51377 10.7474,-6.7779 z m 62,-148.34546 c -15.86702,-3.0719 -29.8519,-15.41237 -34.12542,-30.11277 -2.89982,-9.97504 -2.03314,-24.50879 1.95248,-32.74198 12.37333,-25.55989 48.59498,-31.78828 69.75594,-11.99468 3.5115,3.2846 8.04185,9.34672 10.06744,13.47138 3.16901,6.45299 3.67418,9.08073 3.62047,18.83271 -0.0525,9.53906 -0.63951,12.52841 -3.70758,18.88182 -8.3159,17.22071 -28.63256,27.32857 -47.56333,23.66352 z m 17.70311,-14.62551 c 11.32406,-3.14472 20.04466,-15.33217 20.06357,-28.03981 0.039,-26.21914 -30.49371,-39.8197 -50.28474,-22.39893 -20.05242,17.65083 -7.1554,51.26737 19.85139,51.74337 2.93333,0.0517 7.59973,-0.53538 10.36978,-1.30463 z M 111.08131,888.52763 c 15.19177,-10.45221 49.08495,-46.44572 69.51298,-73.82064 9.80128,-13.13437 20.22633,-32.19011 20.22633,-36.97131 0,-15.93033 -41.98177,25.37626 -74.16407,72.97131 -12.18251,18.01696 -24.96004,42 -22.37649,42 0.39972,0 3.46028,-1.88071 6.80125,-4.17936 z M 99.374007,869.16112 c 2.733853,-5.0475 3.664543,-8.05493 2.810993,-9.0834 -0.70182,-0.84564 -6.081523,-5.26245 -11.954883,-9.81513 l -10.678847,-8.27761 -4.900778,7.38111 c -2.695428,4.05961 -4.659824,7.60735 -4.365324,7.88387 1.039977,0.9765 24.538749,19.41673 24.768639,19.43674 0.12825,0.0112 2.07235,-3.37535 4.3202,-7.52558 z M 70.891258,811.04033 c 7.482165,-22.71727 25.865859,-61.23964 42.036272,-88.08551 7.77525,-12.90835 7.72939,-12.9506 -10.4024,-9.58255 -15.678063,2.91226 -33.902619,9.11871 -42.995303,14.64222 -18.504006,11.24059 -45.715789,47.27907 -58.65029845,77.67472 -2.23239695,5.24605 -4.05890295,9.78085 -4.05890295,10.07733 0,0.29647 9.749999,0.97924 21.6666654,1.51725 11.916666,0.53801 26.466665,1.74487 32.333332,2.68191 17.590178,2.80954 15.96803,3.53091 20.070635,-8.92537 z M 363.35326,669.99806 c 7.09827,-28.94341 8.47611,-60.92243 3.53879,-82.1333 -3.43919,-14.77481 -3.03956,-14.51794 -22.30178,-14.33488 -13.84477,0.13157 -18.91462,0.81324 -32.1543,4.32333 -16.1606,4.28447 -32.01296,10.32323 -47.20544,17.98231 l -8.65902,4.36533 16.03215,15.35969 c 8.81769,8.44782 23.88229,21.61171 33.4769,29.25307 18.04266,14.36958 50.30404,37.04906 52.86305,37.16229 0.80098,0.0354 2.78533,-5.35459 4.40965,-11.97784 z M 564.8206,501.37368 v -8.66667 H 191.48728 -181.84603 v 8.66667 8.66666 H 191.48728 564.8206 Z m -0.32009,-289.66665 -0.34658,-259.666656 -3.56024,-7.59533 c -4.53423,-9.673199 -13.08298,-18.221952 -23.17906,-23.179053 l -7.92737,-3.892281 H 192.12591 -145.23544 l -8.90177,4.38233 c -13.47853,6.635457 -22.80615,18.646163 -26.32377,33.895789 -0.84576,3.666546 -1.33157,97.319367 -1.35245,260.721861 l -0.0326,254.99999 H 191.50053 564.84709 Z M 4.8706146,325.05208 c -15.3766166,-0.49007 -18.7166556,-1.96916 -18.7166556,-8.28839 0,-1.94152 2.1,-12.08248 4.6666669,-22.53546 2.5666667,-10.45298 4.6666667,-19.87148 4.6666667,-20.92998 0,-1.53989 -2.4904183,-1.92456 -12.4600166,-1.92456 -16.988573,0 -16.873315,0.15262 -16.873315,-22.34308 0,-14.1008 0.403735,-17.87018 2.095238,-19.56168 1.69975,-1.69975 5.537782,-2.09658 20.333332,-2.10238 l 18.2380936,-0.007 5.7019624,-24.32619 c 3.136079,-13.3794 5.686079,-24.77619 5.666666,-25.32619 -0.01941,-0.55 -5.301791,-1 -11.7386194,-1 -17.6265376,0 -17.6300076,-0.004 -17.6300076,-21.86895 0,-23.09611 -1.001821,-22.13105 22.973897,-22.13105 h 18.097255 l 5.780728,-24.3163 c 3.603324,-15.157182 6.666029,-25.201609 8.131089,-26.666669 1.995129,-1.995129 4.87851,-2.350361 19.077633,-2.350361 15.95737,0 16.877091,0.14982 19.982322,3.25505 3.744817,3.744822 3.847697,2.592996 -2.71829,30.43457 -2.380969,10.09596 -3.953046,18.54115 -3.493504,18.76709 0.459543,0.22594 7.860341,0.57043 16.446221,0.76553 15.403353,0.35002 15.620333,0.31327 16.336643,-2.76709 8.81132,-37.891152 11.38133,-47.154173 13.51587,-48.714988 1.6642,-1.216894 7.51533,-1.740162 19.4583,-1.740162 15.30072,0 17.35608,0.277586 19.74516,2.666667 1.46667,1.466666 2.66667,3.638496 2.66667,4.826288 0,1.187792 -2.1,11.098963 -4.66667,22.024825 -2.56666,10.92587 -4.66666,20.75404 -4.66666,21.84038 0,1.61224 2.43603,1.97517 13.25772,1.97517 17.36893,0 17.40894,0.0508 17.40894,22.09003 0,21.18511 0.89435,20.38326 -23.278,20.87057 l -18.48842,0.37273 -5.76588,24.66667 c -3.17123,13.56666 -5.77379,25.11666 -5.78345,25.66666 -0.01,0.55 5.9484,1 13.24015,1 17.3912,0 17.40894,0.0227 17.40894,22.29668 0,22.25901 0.60766,21.70332 -23.73317,21.70332 h -18.39983 l -5.63754,24.26964 c -3.10239,13.3558 -6.61304,25.34756 -7.80682,26.66666 -1.88862,2.08691 -4.55363,2.39703 -20.598553,2.39703 -18.157097,0 -18.461345,-0.0489 -20.600336,-3.31345 -2.05022,-3.12903 -1.900002,-4.48336 2.698966,-24.33333 2.678511,-11.56094 5.182087,-22.06988 5.563501,-23.35322 0.634464,-2.13476 -0.724876,-2.33333 -15.973185,-2.33333 -14.744079,0 -16.739354,0.26916 -17.296792,2.33333 -0.346569,1.28334 -2.914767,12.17465 -5.707107,24.20292 -2.79234,12.02827 -5.999216,22.93017 -7.126391,24.22644 -2.588673,2.97701 -6.638331,3.46901 -23.9994184,2.9157 z M 86.662487,225.04036 c 0.37853,-1.28333 2.8298,-11.63333 5.44727,-23 2.61746,-11.36666 5.08862,-21.71666 5.49146,-23 0.67076,-2.13684 -0.67108,-2.33333 -15.934229,-2.33333 -14.721426,0 -16.74715,0.27233 -17.356253,2.33333 -0.379273,1.28334 -2.839869,11.63334 -5.46799,23 -2.628121,11.36667 -5.098672,21.71667 -5.490112,23 -0.65144,2.13574 0.699701,2.33333 15.954955,2.33333 14.721939,0 16.746969,-0.27226 17.354899,-2.33333 z M 232.3606,322.2687 c -3.09117,-3.4157 -2.82893,-6.53161 2.44421,-29.0415 2.55797,-10.91943 4.65797,-20.30351 4.66666,-20.85351 0.009,-0.55 -5.68419,-1 -12.65085,-1 -18.13087,0 -18.3407,-0.27018 -17.77057,-22.88087 0.55529,-22.02151 -0.43895,-21.11913 23.26889,-21.11913 15.65413,0 17.7361,-0.26447 18.36814,-2.33333 0.56599,-1.85268 5.9113,-24.24972 10.81931,-45.33333 0.6867,-2.94992 0.48647,-3 -11.99371,-3 -17.88151,0 -18.0254,-0.17929 -18.0254,-22.46002 0,-22.30598 -1.03011,-21.3446 23.39479,-21.83391 l 18.60521,-0.37273 6.14571,-24.54736 c 4.2994,-17.172791 6.87947,-25.083908 8.58817,-26.333336 1.71634,-1.255016 7.14945,-1.785974 18.27528,-1.785974 25.35945,0 25.52274,0.267983 18.33991,30.0982 -2.94199,12.21807 -5.34907,22.48244 -5.34907,22.80971 0,0.32727 7.25732,0.45928 16.12739,0.29337 14.93224,-0.27931 16.21604,-0.50792 17.32363,-3.08481 0.65794,-1.53072 3.3472,-12.05964 5.97615,-23.39758 2.62894,-11.337952 5.35062,-21.680867 6.04818,-22.984261 1.81086,-3.383618 5.18415,-3.8891 23.05067,-3.454096 15.28616,0.372178 15.95198,0.510352 18.42213,3.823052 2.55364,3.424659 2.5453,3.512641 -2.33713,24.666665 -2.69495,11.67636 -4.98491,21.82975 -5.0888,22.56308 -0.11056,0.78036 5.60303,1.60982 13.77661,2 17.72608,0.84619 17.69411,0.80295 17.02571,23.0261 -0.37178,12.36101 -0.93935,16.16013 -2.67328,17.89406 -2.16629,2.16629 -10.7775,2.99612 -31.73245,3.05796 l -7.41452,0.0219 -5.59836,23.66666 c -3.0791,13.01667 -5.59257,24.41667 -5.58548,25.33334 0.009,1.21351 3.40064,1.66666 12.47289,1.66666 16.93096,0 16.87332,-0.0744 16.87332,21.77166 0,22.81738 0.61832,22.22834 -23.33333,22.22834 -9.9,0 -18,0.23957 -18,0.53238 0,3.35907 -11.36008,47.57105 -12.79614,49.80095 -1.85036,2.87323 -2.71077,3 -20.36128,3 -16.16066,0 -18.70091,-0.30015 -20.63593,-2.43832 -3.03114,-3.34937 -2.86404,-5.21521 2.46002,-27.46835 2.56666,-10.728 4.66666,-20.38773 4.66666,-21.46606 0,-1.61592 -2.80199,-1.96062 -15.93732,-1.96062 h -15.93733 l -1.28898,4.6683 c -0.70894,2.56757 -3.20925,13.21757 -5.55624,23.66667 -2.34699,10.4491 -5.10899,20.34836 -6.13776,21.99836 -1.79331,2.8762 -2.63105,3 -20.29978,3 -16.16067,0 -18.70092,-0.30015 -20.63593,-2.43832 z m 103.15079,-120.56167 6.12692,-25 h -16.4507 c -12.00283,0 -16.58698,0.45063 -16.95476,1.66667 -0.27723,0.91666 -2.70371,11.26666 -5.39217,22.99999 -2.68846,11.73334 -5.18921,22.40218 -5.55723,23.70854 -0.61965,2.1996 0.54222,2.34746 15.71595,2 l 16.38507,-0.3752 z"
       id="path23" /></g><use
     x="0"
     y="0"
     xlink:href="#g23"
     id="use23"
     transform="rotate(-15,533.13964,550.35439)"
     inkscape:label="front" /></svg>
