<?xml version="1.0" encoding="UTF-8" standalone="no"?>
<!-- Created with Inkscape (http://www.inkscape.org/) -->

<svg
   version="1.1"
   id="svg1"
   width="512"
   height="512"
   viewBox="0 0 512 512"
   sodipodi:docname="logo.svg"
   inkscape:version="1.4.2 (ebf0e940d0, 2025-05-08)"
   inkscape:export-filename="logo.png"
   inkscape:export-xdpi="96"
   inkscape:export-ydpi="96"
   xmlns:inkscape="http://www.inkscape.org/namespaces/inkscape"
   xmlns:sodipodi="http://sodipodi.sourceforge.net/DTD/sodipodi-0.dtd"
   xmlns="http://www.w3.org/2000/svg"
   xmlns:svg="http://www.w3.org/2000/svg"
   xmlns:rdf="http://www.w3.org/1999/02/22-rdf-syntax-ns#"
   xmlns:cc="http://creativecommons.org/ns#"
   xmlns:dc="http://purl.org/dc/elements/1.1/">
  <title
     id="title13">Essentialist Logo</title>
  <defs
     id="defs1" />
  <sodipodi:namedview
     id="namedview1"
     pagecolor="#ffffff"
     bordercolor="#666666"
     borderopacity="1.0"
     inkscape:showpageshadow="2"
     inkscape:pageopacity="0.0"
     inkscape:pagecheckerboard="true"
     inkscape:deskcolor="#d1d1d1"
     inkscape:zoom="0.64"
     inkscape:cx="363.28125"
     inkscape:cy="269.53125"
     inkscape:window-width="1920"
     inkscape:window-height="1008"
     inkscape:window-x="0"
     inkscape:window-y="0"
     inkscape:window-maximized="1"
     inkscape:current-layer="svg1"
     showgrid="true"
     showguides="false"
     inkscape:clip-to-page="false" />
  <g
     inkscape:groupmode="layer"
     inkscape:label="Card"
     id="g13"
     style="display:inline"
     transform="matrix(1.2001637,0,0,0.99987633,-49.255889,0.00690681)">
    <rect
       style="display:inline;fill:#ffffff;fill-opacity:1;fill-rule:evenodd;stroke:#ffffff;stroke-width:9.67906;stroke-linecap:round;stroke-miterlimit:4;stroke-dasharray:none;stroke-opacity:1"
       id="rect13"
       width="417.01608"
       height="499.8486"
       x="45.219334"
       y="6.0315537"
       ry="32.867622"
       transform="matrix(0.99999877,0.00156543,0.00363516,0.99999339,0,0)"
       inkscape:label="white rect"
       rx="30.501011" />
    <path
       style="display:inline;fill:#333333;fill-opacity:1;stroke-width:1.32536"
       d="M 60.296352,489.03451 C 49.554703,480.37621 49.436702,479.47233 49.854418,409.05399 50.349629,325.57163 50.501046,264.68883 50.45017,169.5092 50.373314,25.799781 50.083302,33.013373 56.254416,25.16746 65.044689,13.991604 68.997315,13.153438 112.86307,13.163416 c 19.49419,0.0044 57.87634,-0.0311 85.29364,-0.07898 265.04372,-0.462777 240.97313,-1.306599 251.15194,8.803729 8.00146,7.947581 8.34291,11.04493 8.71083,79.020075 0.18848,34.82157 0.46213,78.63893 0.60813,97.37191 0.26289,33.73235 0.45172,160.02039 0.35069,234.52088 -0.0782,57.60938 -3.57106,63.10909 -39.94374,62.8931 -72.67224,-0.43159 -332.419351,-0.0418 -335.473751,0.0326 -9.249956,0.22552 -17.696583,-2.20424 -23.264457,-6.69223 z m 152.065498,-43.2125 c 10.81691,-6.14859 12.02093,-15.11474 3.13016,-23.31019 -14.69113,-13.54221 -26.10124,-6.19575 -29.3168,18.87571 l -1.51084,11.77991 11.3079,-2.22846 c 6.21934,-1.22563 13.59464,-3.52827 16.38958,-5.11697 z m 54.5054,3.86681 c 15.3941,-13.27292 20.03293,-23.74593 18.21794,-41.13037 l -0.39909,-3.82263 -10.06594,7.30869 c -5.53624,4.01976 -13.39032,9.01119 -17.4535,11.09205 l -7.3876,3.78341 1.05603,5.43455 c 0.98086,5.04762 1.39549,15.1474 0.99618,24.26624 -0.22067,5.03974 2.72743,3.68059 15.03598,-6.93194 z m -30.39891,-25.50327 c 1.26264,-4.50498 -25.26455,-26.4182 -28.7486,-23.74828 -1.42523,1.09219 -2.67445,2.26991 -2.77606,2.6172 -0.10144,0.34731 6.18369,6.36056 13.96738,13.36286 14.33791,12.8986 15.92283,13.59986 17.55728,7.76822 z m 23.32257,-11.179 c 43.96084,-26.20087 72.98417,-70.14561 72.48358,-109.74866 -0.12969,-10.2591 -0.88519,-10.548 -18.66798,-7.1385 -41.65469,7.98645 -84.09808,45.87032 -100.02153,89.27665 l -1.75047,4.77167 16.66733,15.04718 c 9.16706,8.27594 17.01582,15.16776 17.44173,15.31516 0.42592,0.14737 6.6572,-3.23818 13.84734,-7.5235 z m -75.35803,-25.6315 c 5.17674,-0.41275 11.89598,-0.50048 14.93162,-0.19498 3.03565,0.3055 5.58629,0.30948 5.66805,0.009 1.61154,-5.92378 15.51991,-32.22415 18.503,-34.98867 2.84042,-2.63229 -15.86624,-0.41533 -25.08494,2.97286 -8.7158,3.20335 -32.89111,34.13011 -26.00977,33.2735 1.41888,-0.17662 6.81529,-0.65882 11.99204,-1.07156 z m -77.7284,-133.19823 c 38.46835,0.16301 157.62577,0.79399 305.00445,1.61506 20.5221,0.11434 37.48989,0.11437 37.70617,1.3e-4 0.2163,-0.11424 0.28146,-18.23914 0.14483,-40.27742 -0.7199,-116.103198 -1.00546,-159.428336 -1.10529,-167.688823 -0.17121,-14.174374 -3.17709,-20.272972 -11.87606,-24.095821 -4.2237,-1.856152 -5.34711,-1.866872 -179.26204,-1.710847 -38.4515,0.03447 -95.0168,0.08336 -125.7007,0.108589 -58.581014,0.04818 -60.157255,0.220748 -66.756495,7.31003 -5.081308,5.458612 -5.609472,16.291408 -5.321277,109.142112 0.139801,45.00499 0.179963,95.12654 0.08366,104.01994 -0.09784,9.02849 0.111632,10.91881 1.243097,11.21524 0.357631,0.0937 20.985518,0.25656 45.839725,0.36186 z m 41.71858,-69.28199 c -0.12943,-1.20383 1.08314,-5.83644 2.69471,-10.29466 l 2.93023,-8.10589 -4.96557,-0.27705 c -10.72319,-0.59834 -11.4482,-1.12762 -11.82578,-8.63358 -0.46501,-9.24397 0.0385,-9.64516 11.68461,-9.31178 l 10.09363,0.28892 3.31208,-10.55312 3.31207,-10.55312 -4.77351,-0.25981 c -10.33558,-0.56249 -11.08305,-1.11276 -11.74282,-8.64488 -0.80427,-9.18176 -0.70406,-9.26513 11.21036,-9.32527 l 10.27941,-0.0508 3.12119,-9.968686 c 3.76798,-12.03448 4.01599,-12.230458 15.52955,-12.272238 11.39292,-0.04141 11.81137,0.729806 7.18053,13.232334 -3.16004,8.53156 -3.20882,9.11387 -0.75755,9.04041 1.44105,-0.0431 5.56249,-0.0201 9.15878,0.0523 l 6.53868,0.13074 2.65513,-9.759979 c 3.20386,-11.777002 4.42198,-12.814427 15.12867,-12.884374 10.4814,-0.06856 10.52187,-0.0026 7.2737,11.937863 -1.50796,5.54307 -2.30399,10.18637 -1.76903,10.31847 0.53501,0.13202 3.91665,0.14183 7.51477,0.0215 7.5596,-0.25243 8.1284,0.36927 8.37322,9.15242 0.22559,8.093 -1.0479,9.04114 -11.85383,8.82531 l -9.5781,-0.19129 -3.66938,9.93229 c -4.35138,11.77847 -4.47661,11.37217 3.5394,11.48226 8.33466,0.11453 9.49371,1.14887 9.58309,8.55223 0.10378,8.60559 -0.91006,9.38908 -12.05276,9.31376 l -9.791,-0.0663 -2.2442,7.64753 c -4.1643,14.19055 -4.76836,14.79316 -14.85811,14.82229 -12.11433,0.0349 -12.86225,-1.11043 -8.50013,-13.01729 1.81767,-4.96153 2.91435,-9.12325 2.43705,-9.24832 -0.47724,-0.12504 -4.50237,-0.18132 -8.94468,-0.12504 l -8.07695,0.1023 -2.30272,8.3949 c -3.49968,12.75858 -4.25881,13.5791 -12.73588,13.76442 -9.35495,0.20449 -12.81231,-0.71013 -13.10898,-3.46792 z m 44.34616,-36.63425 6.43804,0.12934 3.24511,-10.23012 c 1.78484,-5.62659 3.19645,-10.44294 3.13693,-10.70299 -0.0594,-0.26008 -3.91417,-0.42463 -8.56589,-0.36571 l -8.45768,0.1071 -2.1301,7.76032 c -1.17215,4.26802 -2.86521,9.01397 -3.76371,10.54623 -1.37019,2.33661 -1.20685,2.77304 1.01278,2.70617 1.45553,-0.0437 5.54354,-0.021 9.08445,0.0496 z M 259.46143,5.3722793 c 0,0 8.99108,-0.093852 0,0 z M 275.90567,183.89471 c -0.12943,-1.20383 1.08314,-5.83644 2.69471,-10.29466 l 2.93023,-8.10589 -4.96557,-0.27705 c -10.72319,-0.5983 -11.4482,-1.12762 -11.82578,-8.63358 -0.46501,-9.24397 0.0385,-9.64514 11.68461,-9.31178 l 10.09363,0.28892 3.31208,-10.55312 3.31207,-10.55312 -4.77351,-0.25981 c -10.33558,-0.56254 -11.08305,-1.11276 -11.74282,-8.64488 -0.80427,-9.18176 -0.70406,-9.26513 11.21036,-9.32527 l 10.27941,-0.0508 3.12119,-9.968694 c 3.76799,-12.034477 4.01599,-12.23045 15.52955,-12.27223 11.39292,-0.0414 11.81137,0.7298 7.18053,13.23233 -3.16004,8.531564 -3.20882,9.113874 -0.75755,9.040414 1.44105,-0.0431 5.56249,-0.0201 9.15878,0.0523 l 6.53868,0.13074 2.65513,-9.759984 c 3.20385,-11.777005 4.42198,-12.81443 15.12867,-12.88437 10.4814,-0.0686 10.52187,-0.003 7.2737,11.93786 -1.50796,5.543074 -2.30399,10.186374 -1.76903,10.318474 0.53501,0.13202 3.91665,0.14183 7.51477,0.0215 7.5596,-0.25243 8.1284,0.36927 8.37322,9.15242 0.22559,8.093 -1.0479,9.04112 -11.85383,8.82531 l -9.5781,-0.19129 -3.66938,9.93229 c -4.35142,11.77844 -4.47661,11.37217 3.5394,11.48226 8.33466,0.11453 9.49371,1.14887 9.58309,8.55223 0.10378,8.60559 -0.91006,9.38908 -12.05276,9.31376 l -9.791,-0.0663 -2.2442,7.64753 c -4.16428,14.19055 -4.76836,14.79316 -14.85811,14.82229 -12.11433,0.0349 -12.86225,-1.11043 -8.50013,-13.01729 1.81767,-4.96153 2.91435,-9.12325 2.43705,-9.24832 -0.47724,-0.12504 -4.50237,-0.18131 -8.94468,-0.12504 l -8.07695,0.1023 -2.30272,8.3949 c -3.49967,12.75858 -4.25881,13.5791 -12.73588,13.76442 -9.35495,0.20449 -12.81231,-0.71013 -13.10898,-3.46792 z m 44.34616,-36.63425 6.43804,0.12934 3.24511,-10.23012 c 1.78482,-5.6266 3.19645,-10.44294 3.13693,-10.70299 -0.0594,-0.26008 -3.91417,-0.42462 -8.56589,-0.36571 l -8.45768,0.1071 -2.1301,7.76032 c -1.17215,4.26802 -2.86521,9.01397 -3.76371,10.54623 -1.37019,2.33661 -1.20685,2.77304 1.01278,2.70617 1.45553,-0.0437 10.04613,0.40038 9.3146,-0.22665 z"
       id="path11"
       inkscape:label="card"
       sodipodi:nodetypes="sssssssssssssssscsssscsscssssscsssssscsssscssssssccsssssssssscccssscccssscssssscssssssscsssscssssscssccccsssccsssccsscccccssscccssccscscccsccccsscsscccscssscssccccscsccsccc" />
    <path
       style="display:inline;fill:#ffeded;fill-opacity:1;fill-rule:evenodd;stroke:#ffffff;stroke-width:1.32536px;stroke-linecap:butt;stroke-linejoin:miter;stroke-opacity:1"
       d="m 222.85985,428.71215 c 6.83891,5.81171 -18.71022,36.91202 -30.22047,46.16855 -11.51025,9.25655 -22.16646,21.44429 -40.25713,25.71992 -18.09067,4.27563 -90.953816,-1.25613 -96.791702,-10.34476 -5.837899,-9.08864 -15.35341,-45.4718 -10.028916,-39.03105 5.324494,6.44076 2.267152,13.09442 16.36436,23.09265 14.097208,9.99823 30.986176,7.52568 47.389228,-0.0498 16.40304,-7.57552 51.69323,-33.91414 64.10923,-42.91349 12.416,-8.99936 27.01404,-25.13383 33.28917,-17.41503 6.27511,7.7188 9.30731,8.96134 16.14623,14.77304 z"
       id="path12"
       sodipodi:nodetypes="zzzzzzzzzz"
       inkscape:label="cloud" />
    <path
       style="display:inline;fill:none;fill-rule:evenodd;stroke:#333333;stroke-width:7.95215;stroke-linecap:round;stroke-linejoin:miter;stroke-dasharray:none;stroke-opacity:1"
       d="m 202.07946,420.56607 c 0,0 -11.81706,4.43533 -18.07669,31.84683 27.14464,-2.83173 31.15168,-17.96604 31.15168,-17.96604"
       id="path13"
       sodipodi:nodetypes="ccc"
       inkscape:label="fire" />
    <ellipse
       style="display:inline;fill:#333333;fill-opacity:1;fill-rule:evenodd;stroke:#333333;stroke-width:7.30292;stroke-linecap:round;stroke-miterlimit:4;stroke-dasharray:none;stroke-opacity:1"
       id="path15"
       cx="285.19162"
       cy="343.74731"
       rx="9.9986782"
       ry="12.002449"
       inkscape:label="window"
       transform="matrix(0.99998629,-0.00523731,0.00363516,0.99999339,0,0)" />
  </g>
  <metadata
     id="metadata13">
    <rdf:RDF>
      <cc:Work
         rdf:about="">
        <cc:license
           rdf:resource="http://creativecommons.org/licenses/by-nc-nd/4.0/" />
        <dc:title>Essentialist Logo</dc:title>
        <dc:description>https://essentialist.app</dc:description>
        <dc:subject>
          <rdf:Bag>
            <rdf:li>flashcard application</rdf:li>
          </rdf:Bag>
        </dc:subject>
      </cc:Work>
      <cc:License
         rdf:about="http://creativecommons.org/licenses/by-nc-nd/4.0/">
        <cc:permits
           rdf:resource="http://creativecommons.org/ns#Reproduction" />
        <cc:permits
           rdf:resource="http://creativecommons.org/ns#Distribution" />
        <cc:requires
           rdf:resource="http://creativecommons.org/ns#Notice" />
        <cc:requires
           rdf:resource="http://creativecommons.org/ns#Attribution" />
        <cc:prohibits
           rdf:resource="http://creativecommons.org/ns#CommercialUse" />
      </cc:License>
    </rdf:RDF>
  </metadata>
</svg>
